<svg width="112" height="20" viewBox="0 0 112 20" fill="none" xmlns="http://www.w3.org/2000/svg">
<g clip-path="url(#clip0_15_230)">
<path d="M8.91406 5.1727C8.91406 8.0295 11.2299 10.3454 14.0867 10.3454C16.9435 10.3454 19.2594 8.0295 19.2594 5.1727C19.2594 2.3159 16.9435 0 14.0867 0C11.2299 0 8.91406 2.3159 8.91406 5.1727Z" fill="#5C6670"/>
<path d="M27.9088 9.26914L13.9798 19.93L0 9.22974L13.9516 14.1544L27.9088 9.26914Z" fill="#CF3338"/>
<path d="M33.7089 8.69988C33.7089 8.44658 33.7022 8.11988 33.6889 7.71988C33.6755 7.31988 33.6555 6.95988 33.6289 6.63988H34.9289C34.9555 6.89318 34.9755 7.17318 34.9889 7.47988C35.0022 7.78658 35.0089 8.03988 35.0089 8.23988H35.0489C35.3155 7.69318 35.7155 7.25318 36.2489 6.91988C36.7822 6.57318 37.3822 6.39988 38.0489 6.39988C38.2222 6.39988 38.3755 6.40658 38.5089 6.41988C38.6555 6.43318 38.8022 6.45988 38.9489 6.49988L38.7689 7.77988C38.6889 7.75318 38.5555 7.72658 38.3689 7.69988C38.1822 7.67318 37.9955 7.65988 37.8089 7.65988C37.4489 7.65988 37.1022 7.72658 36.7689 7.85988C36.4355 7.99318 36.1422 8.20658 35.8889 8.49988C35.6489 8.77988 35.4489 9.14658 35.2889 9.59988C35.1422 10.0399 35.0689 10.5732 35.0689 11.1999V15.9999H33.7089V8.69988ZM47.7043 10.5999C47.6643 9.71988 47.3777 8.99318 46.8443 8.41988C46.3243 7.83318 45.5777 7.53988 44.6043 7.53988C44.151 7.53988 43.731 7.62658 43.3443 7.79988C42.9577 7.95988 42.6177 8.18658 42.3243 8.47988C42.031 8.75988 41.7977 9.08658 41.6243 9.45988C41.451 9.81988 41.351 10.1999 41.3243 10.5999H47.7043ZM49.0843 11.0399C49.0843 11.1332 49.0843 11.2332 49.0843 11.3399C49.0843 11.4466 49.0777 11.5599 49.0643 11.6799H41.3043C41.3177 12.1466 41.411 12.5866 41.5843 12.9999C41.7577 13.4132 41.9977 13.7732 42.3043 14.0799C42.611 14.3866 42.971 14.6332 43.3843 14.8199C43.7977 14.9932 44.2443 15.0799 44.7243 15.0799C45.431 15.0799 46.0377 14.9199 46.5443 14.5999C47.0643 14.2666 47.4577 13.8866 47.7243 13.4599L48.7443 14.2599C48.1843 14.9666 47.5643 15.4732 46.8843 15.7799C46.2177 16.0866 45.4977 16.2399 44.7243 16.2399C44.031 16.2399 43.3843 16.1199 42.7843 15.8799C42.1977 15.6266 41.691 15.2799 41.2643 14.8399C40.8377 14.3999 40.4977 13.8799 40.2443 13.2799C40.0043 12.6799 39.8843 12.0266 39.8843 11.3199C39.8843 10.6132 40.0043 9.95988 40.2443 9.35988C40.4843 8.75988 40.8177 8.23988 41.2443 7.79988C41.671 7.35988 42.171 7.01988 42.7443 6.77988C43.3177 6.52658 43.9377 6.39988 44.6043 6.39988C45.3377 6.39988 45.9843 6.52658 46.5443 6.77988C47.1043 7.01988 47.571 7.35318 47.9443 7.77988C48.3177 8.19318 48.5977 8.67988 48.7843 9.23988C48.9843 9.79988 49.0843 10.3999 49.0843 11.0399ZM57.7927 9.95988C57.7927 9.14658 57.5787 8.53988 57.1527 8.13988C56.7257 7.73988 56.1057 7.53988 55.2927 7.53988C54.7327 7.53988 54.2127 7.63988 53.7327 7.83988C53.2527 8.03988 52.8457 8.30658 52.5127 8.63988L51.7525 7.73988C52.1387 7.35318 52.6457 7.03318 53.2727 6.77988C53.9127 6.52658 54.6327 6.39988 55.4327 6.39988C55.9387 6.39988 56.4127 6.47318 56.8527 6.61988C57.2927 6.75318 57.6787 6.95988 58.0127 7.23988C58.3457 7.51988 58.6057 7.87318 58.7927 8.29988C58.9787 8.72658 59.0727 9.22658 59.0727 9.79988V13.8999C59.0727 14.2599 59.0857 14.6332 59.1127 15.0199C59.1387 15.4066 59.1787 15.7332 59.2327 15.9999H58.0127C57.9727 15.7732 57.9387 15.5266 57.9127 15.2599C57.8857 14.9932 57.8727 14.7332 57.8727 14.4799H57.8327C57.4057 15.1066 56.9187 15.5599 56.3727 15.8399C55.8387 16.1066 55.1927 16.2399 54.4327 16.2399C54.0727 16.2399 53.6987 16.1866 53.3127 16.0799C52.9387 15.9866 52.5927 15.8266 52.2727 15.5999C51.9658 15.3732 51.7058 15.0799 51.4925 14.7199C51.2925 14.3599 51.1925 13.9199 51.1925 13.3999C51.1925 12.6799 51.3725 12.1132 51.7325 11.6999C52.1057 11.2732 52.5987 10.9599 53.2127 10.7599C53.8257 10.5466 54.5257 10.4132 55.3127 10.3599C56.1127 10.2932 56.9387 10.2599 57.7927 10.2599V9.95988ZM57.3927 11.3199C56.8327 11.3199 56.2657 11.3466 55.6927 11.3999C55.1327 11.4399 54.6187 11.5332 54.1527 11.6799C53.6987 11.8132 53.3257 12.0132 53.0327 12.2799C52.7387 12.5466 52.5927 12.8999 52.5927 13.3399C52.5927 13.6732 52.6527 13.9532 52.7727 14.1799C52.9057 14.4066 53.0787 14.5932 53.2927 14.7399C53.5057 14.8732 53.7387 14.9732 53.9927 15.0399C54.2587 15.0932 54.5257 15.1199 54.7927 15.1199C55.2727 15.1199 55.6987 15.0399 56.0727 14.8799C56.4457 14.7066 56.7587 14.4799 57.0127 14.1999C57.2657 13.9066 57.4587 13.5732 57.5927 13.1999C57.7257 12.8266 57.7927 12.4332 57.7927 12.0199V11.3199H57.3927ZM69.3157 8.77988C69.0897 8.41988 68.7557 8.12658 68.3157 7.89988C67.8897 7.65988 67.4227 7.53988 66.9157 7.53988C66.3697 7.53988 65.8757 7.63988 65.4357 7.83988C64.9957 8.02658 64.6157 8.29318 64.2957 8.63988C63.9897 8.97318 63.7497 9.37318 63.5757 9.83988C63.4157 10.2932 63.3357 10.7866 63.3357 11.3199C63.3357 11.8532 63.4157 12.3466 63.5757 12.7999C63.7497 13.2532 63.9897 13.6532 64.2957 13.9999C64.6027 14.3332 64.9757 14.5999 65.4157 14.7999C65.8557 14.9866 66.3497 15.0799 66.8957 15.0799C67.4957 15.0799 68.0027 14.9666 68.4157 14.7399C68.8297 14.5132 69.1697 14.2199 69.4357 13.8599L70.4557 14.6199C70.0557 15.1132 69.5627 15.5066 68.9757 15.7999C68.4027 16.0932 67.7097 16.2399 66.8957 16.2399C66.1357 16.2399 65.4497 16.1199 64.8357 15.8799C64.2227 15.6266 63.6957 15.2799 63.2557 14.8399C62.8297 14.3999 62.4957 13.8799 62.2557 13.2799C62.0157 12.6799 61.8957 12.0266 61.8957 11.3199C61.8957 10.6132 62.0157 9.95988 62.2557 9.35988C62.4957 8.75988 62.8297 8.23988 63.2557 7.79988C63.6957 7.35988 64.2227 7.01988 64.8357 6.77988C65.4497 6.52658 66.1357 6.39988 66.8957 6.39988C67.5227 6.39988 68.1557 6.53988 68.7957 6.81988C69.4497 7.08658 69.9757 7.48658 70.3757 8.01988L69.3157 8.77988ZM74.0157 8.17988C74.2697 7.63318 74.6897 7.19988 75.2757 6.87988C75.8627 6.55988 76.4897 6.39988 77.1557 6.39988C78.3427 6.39988 79.2297 6.75318 79.8157 7.45988C80.4157 8.16658 80.7157 9.09988 80.7157 10.2599V15.9999H79.3557V10.8199C79.3557 10.3266 79.3157 9.87988 79.2357 9.47988C79.1557 9.07988 79.0157 8.73988 78.8157 8.45988C78.6297 8.16658 78.3697 7.93988 78.0357 7.77988C77.7157 7.61988 77.3097 7.53988 76.8157 7.53988C76.4557 7.53988 76.1027 7.61318 75.7557 7.75988C75.4227 7.90658 75.1227 8.13318 74.8557 8.43988C74.5897 8.73318 74.3757 9.11318 74.2157 9.57988C74.0557 10.0332 73.9757 10.5732 73.9757 11.1999V15.9999H72.6157V0.879883H73.9757V8.17988H74.0157Z" fill="#5C6670"/>
<path d="M86.3692 8.08001C86.6092 7.57331 86.9892 7.14671 87.5092 6.80001C88.0432 6.44001 88.6692 6.26001 89.3892 6.26001C90.0292 6.26001 90.6032 6.40671 91.1092 6.70001C91.6292 6.99331 92.0362 7.48001 92.3292 8.16001C92.6492 7.54671 93.0962 7.08001 93.6692 6.76001C94.2432 6.42671 94.8692 6.26001 95.5492 6.26001C96.1632 6.26001 96.6892 6.36671 97.1292 6.58001C97.5692 6.78001 97.9362 7.05331 98.2292 7.40001C98.5232 7.74671 98.7362 8.15331 98.8692 8.62001C99.0162 9.08671 99.0892 9.58671 99.0892 10.12V16H97.2092V10.74C97.2092 10.3533 97.1762 9.98671 97.1092 9.64001C97.0432 9.29331 96.9292 8.98671 96.7692 8.72001C96.6092 8.45331 96.3962 8.24001 96.1292 8.08001C95.8632 7.92001 95.5232 7.84001 95.1092 7.84001C94.6832 7.84001 94.3162 7.93331 94.0092 8.12001C93.7032 8.29331 93.4492 8.52671 93.2492 8.82001C93.0632 9.10001 92.9232 9.42001 92.8292 9.78001C92.7492 10.14 92.7092 10.5067 92.7092 10.88V16H90.8292V10.36C90.8292 9.98671 90.7962 9.64671 90.7292 9.34001C90.6632 9.03331 90.5492 8.77331 90.3892 8.56001C90.2292 8.33331 90.0232 8.16001 89.7692 8.04001C89.5162 7.90671 89.2032 7.84001 88.8292 7.84001C88.1362 7.84001 87.5562 8.12671 87.0892 8.70001C86.6362 9.26001 86.4092 10.0133 86.4092 10.96V16H84.5292V8.56001C84.5292 8.30671 84.5232 7.98001 84.5092 7.58001C84.4962 7.18001 84.4762 6.82671 84.4492 6.52001H86.2292C86.2562 6.76001 86.2762 7.03331 86.2892 7.34001C86.3032 7.63331 86.3092 7.88001 86.3092 8.08001H86.3692ZM109.204 10.42C109.19 10.0467 109.124 9.70001 109.004 9.38001C108.897 9.04671 108.73 8.76001 108.504 8.52001C108.29 8.28001 108.017 8.09331 107.684 7.96001C107.364 7.81331 106.984 7.74001 106.544 7.74001C106.144 7.74001 105.764 7.81331 105.404 7.96001C105.057 8.09331 104.75 8.28001 104.484 8.52001C104.23 8.76001 104.017 9.04671 103.844 9.38001C103.684 9.70001 103.59 10.0467 103.564 10.42H109.204ZM111.104 11.18C111.104 11.2867 111.104 11.3933 111.104 11.5C111.104 11.6067 111.097 11.7133 111.084 11.82H103.564C103.577 12.22 103.664 12.6 103.824 12.96C103.997 13.3067 104.224 13.6133 104.504 13.88C104.784 14.1333 105.104 14.3333 105.464 14.48C105.837 14.6267 106.23 14.7 106.644 14.7C107.284 14.7 107.837 14.56 108.304 14.28C108.77 14 109.137 13.66 109.404 13.26L110.724 14.32C110.217 14.9867 109.617 15.48 108.924 15.8C108.244 16.1067 107.484 16.26 106.644 16.26C105.924 16.26 105.257 16.14 104.644 15.9C104.03 15.66 103.504 15.3267 103.064 14.9C102.624 14.46 102.277 13.9333 102.024 13.32C101.77 12.7067 101.644 12.0267 101.644 11.28C101.644 10.5467 101.764 9.87331 102.004 9.26001C102.257 8.63331 102.604 8.10001 103.044 7.66001C103.484 7.22001 104.004 6.88001 104.604 6.64001C105.204 6.38671 105.85 6.26001 106.544 6.26001C107.237 6.26001 107.864 6.37331 108.424 6.60001C108.997 6.82671 109.477 7.15331 109.864 7.58001C110.264 8.00671 110.57 8.52671 110.784 9.14001C110.997 9.74001 111.104 10.42 111.104 11.18Z" fill="#CF3338"/>
</g>
<defs>
<clipPath id="clip0_15_230">
<rect width="111.104" height="19.93" fill="white"/>
</clipPath>
</defs>
</svg>
