<svg width="86" height="40" viewBox="0 0 86 40" fill="none" xmlns="http://www.w3.org/2000/svg">
<path d="M11.6369 14.1052H5.5737L9.46844 8.35779H24.6053V14.1052H18.5V28.6315H11.6369V14.1052Z" fill="#2A3750"/>
<path d="M24.3737 8.35779H42.479L38.6053 13.9157H31.1316V15.9788H36.079V20.8631H31.1316V23.0736H38.6053L42.479 28.6315H24.3737V8.35779Z" fill="#2A3750"/>
<path d="M39.4895 18.5684V18.4842C39.4895 12.6947 44.0579 8.33679 49.8895 8.33679C54.2053 8.33679 57.0895 10.421 58.7737 13.3894L53.3842 16.5473C52.6474 15.1789 51.5947 14.2105 49.8263 14.2105C47.5947 14.2105 46.1421 16.1473 46.1421 18.4421V18.4842C46.1421 21.0105 47.6579 22.7999 49.8263 22.7999C51.679 22.7999 52.7316 21.7894 53.5105 20.3578L58.9 23.4105C57.2579 26.3157 54.5211 28.6526 49.6579 28.6526C44.2053 28.6315 39.4895 24.5894 39.4895 18.5684Z" fill="#2A3750"/>
<path d="M60.1842 8.35779H67.0684V15.5157H72.1632V8.35779H79.0263V28.6315H72.1632V21.3473H67.0684V28.6315H60.1842V8.35779Z" fill="#2A3750"/>
</svg>
